<mxfile host="app.diagrams.net" modified="2023-08-24T08:43:03.179Z" agent="Mozilla/5.0 (Windows NT 10.0; Win64; x64) AppleWebKit/537.36 (KHTML, like Gecko) Chrome/116.0.0.0 Safari/537.36 Edg/116.0.1938.54" etag="uA10ciqrDURTYDW2YBsZ" version="21.6.9" type="github">
  <diagram name="第 1 页" id="bg1YBPtNvMRcdtTk9uoi">
    <mxGraphModel dx="1757" dy="542" grid="1" gridSize="10" guides="1" tooltips="1" connect="1" arrows="1" fold="1" page="1" pageScale="1" pageWidth="827" pageHeight="1169" math="0" shadow="0">
      <root>
        <mxCell id="0" />
        <mxCell id="1" parent="0" />
        <mxCell id="tyRtAacIzeEGG3dSfyBD-1" value="Efficient Physical Image Attacks Using Adversarial Fast Autoaugmentation Methods" style="text;html=1;strokeColor=none;fillColor=none;align=center;verticalAlign=middle;whiteSpace=wrap;rounded=0;" parent="1" vertex="1">
          <mxGeometry x="-40" y="20" width="550" height="30" as="geometry" />
        </mxCell>
        <mxCell id="tyRtAacIzeEGG3dSfyBD-4" style="edgeStyle=orthogonalEdgeStyle;rounded=0;orthogonalLoop=1;jettySize=auto;html=1;exitX=1;exitY=0.5;exitDx=0;exitDy=0;fontColor=#666666;" parent="1" source="tyRtAacIzeEGG3dSfyBD-2" edge="1">
          <mxGeometry relative="1" as="geometry">
            <mxPoint x="130" y="94.9655172413793" as="targetPoint" />
          </mxGeometry>
        </mxCell>
        <mxCell id="tyRtAacIzeEGG3dSfyBD-2" value="EoT methods" style="rounded=0;whiteSpace=wrap;html=1;fontColor=#666666;" parent="1" vertex="1">
          <mxGeometry y="80" width="100" height="30" as="geometry" />
        </mxCell>
        <mxCell id="tyRtAacIzeEGG3dSfyBD-5" value="generate 3D AEs, provide a approach for studying physical attacks(subject to limitations)" style="text;html=1;align=center;verticalAlign=middle;resizable=0;points=[];autosize=1;strokeColor=none;fillColor=none;fontColor=#666666;" parent="1" vertex="1">
          <mxGeometry x="130" y="80" width="490" height="30" as="geometry" />
        </mxCell>
        <mxCell id="tyRtAacIzeEGG3dSfyBD-8" style="edgeStyle=orthogonalEdgeStyle;rounded=0;orthogonalLoop=1;jettySize=auto;html=1;exitX=1;exitY=0.5;exitDx=0;exitDy=0;" parent="1" source="tyRtAacIzeEGG3dSfyBD-6" edge="1">
          <mxGeometry relative="1" as="geometry">
            <mxPoint x="130" y="154.9655172413793" as="targetPoint" />
          </mxGeometry>
        </mxCell>
        <mxCell id="tyRtAacIzeEGG3dSfyBD-6" value="AFA&amp;nbsp;methods" style="rounded=0;whiteSpace=wrap;html=1;" parent="1" vertex="1">
          <mxGeometry y="140" width="100" height="30" as="geometry" />
        </mxCell>
        <mxCell id="tyRtAacIzeEGG3dSfyBD-9" value="alleviating the sample collection pressure" style="text;html=1;align=center;verticalAlign=middle;resizable=0;points=[];autosize=1;strokeColor=none;fillColor=none;" parent="1" vertex="1">
          <mxGeometry x="130" y="140" width="240" height="30" as="geometry" />
        </mxCell>
        <mxCell id="tyRtAacIzeEGG3dSfyBD-18" style="edgeStyle=orthogonalEdgeStyle;rounded=0;orthogonalLoop=1;jettySize=auto;html=1;exitX=1;exitY=0.75;exitDx=0;exitDy=0;entryX=0;entryY=0.5;entryDx=0;entryDy=0;" parent="1" source="tyRtAacIzeEGG3dSfyBD-10" target="tyRtAacIzeEGG3dSfyBD-13" edge="1">
          <mxGeometry relative="1" as="geometry" />
        </mxCell>
        <mxCell id="tyRtAacIzeEGG3dSfyBD-10" value="AFA-MSEM" style="rounded=0;whiteSpace=wrap;html=1;" parent="1" vertex="1">
          <mxGeometry y="220" width="100" height="30" as="geometry" />
        </mxCell>
        <mxCell id="tyRtAacIzeEGG3dSfyBD-20" style="edgeStyle=orthogonalEdgeStyle;rounded=0;orthogonalLoop=1;jettySize=auto;html=1;exitX=1;exitY=0.25;exitDx=0;exitDy=0;entryX=0;entryY=0.5;entryDx=0;entryDy=0;" parent="1" source="tyRtAacIzeEGG3dSfyBD-11" target="tyRtAacIzeEGG3dSfyBD-13" edge="1">
          <mxGeometry relative="1" as="geometry" />
        </mxCell>
        <mxCell id="tyRtAacIzeEGG3dSfyBD-11" value="AFA-MLEM" style="rounded=0;whiteSpace=wrap;html=1;" parent="1" vertex="1">
          <mxGeometry y="320" width="100" height="30" as="geometry" />
        </mxCell>
        <mxCell id="tyRtAacIzeEGG3dSfyBD-13" value="achieve adversarial attacks that deceive classifiers in both the digital and real-world scenarios" style="text;html=1;strokeColor=none;fillColor=none;align=center;verticalAlign=middle;whiteSpace=wrap;rounded=0;" parent="1" vertex="1">
          <mxGeometry x="140" y="270" width="280" height="30" as="geometry" />
        </mxCell>
        <mxCell id="tyRtAacIzeEGG3dSfyBD-22" style="edgeStyle=orthogonalEdgeStyle;rounded=0;orthogonalLoop=1;jettySize=auto;html=1;exitX=1;exitY=0.5;exitDx=0;exitDy=0;" parent="1" source="tyRtAacIzeEGG3dSfyBD-21" edge="1">
          <mxGeometry relative="1" as="geometry">
            <mxPoint x="140" y="414.9655172413793" as="targetPoint" />
          </mxGeometry>
        </mxCell>
        <mxCell id="tyRtAacIzeEGG3dSfyBD-21" value="adaptive norm algorithm" style="rounded=0;whiteSpace=wrap;html=1;" parent="1" vertex="1">
          <mxGeometry y="400" width="100" height="30" as="geometry" />
        </mxCell>
        <mxCell id="tyRtAacIzeEGG3dSfyBD-23" value="enable the crafting of faster and smaller perturbations" style="text;html=1;align=center;verticalAlign=middle;resizable=0;points=[];autosize=1;strokeColor=none;fillColor=none;" parent="1" vertex="1">
          <mxGeometry x="140" y="400" width="310" height="30" as="geometry" />
        </mxCell>
        <mxCell id="tyRtAacIzeEGG3dSfyBD-24" value="缩写" style="swimlane;fontStyle=0;childLayout=stackLayout;horizontal=1;startSize=30;horizontalStack=0;resizeParent=1;resizeParentMax=0;resizeLast=0;collapsible=1;marginBottom=0;whiteSpace=wrap;html=1;" parent="1" vertex="1">
          <mxGeometry x="-470" y="110" width="240" height="150" as="geometry">
            <mxRectangle x="-390" y="150" width="60" height="30" as="alternateBounds" />
          </mxGeometry>
        </mxCell>
        <mxCell id="tyRtAacIzeEGG3dSfyBD-25" value="AEs&amp;nbsp; &amp;nbsp; adversarial examples" style="text;strokeColor=none;fillColor=none;align=left;verticalAlign=middle;spacingLeft=4;spacingRight=4;overflow=hidden;points=[[0,0.5],[1,0.5]];portConstraint=eastwest;rotatable=0;whiteSpace=wrap;html=1;" parent="tyRtAacIzeEGG3dSfyBD-24" vertex="1">
          <mxGeometry y="30" width="240" height="30" as="geometry" />
        </mxCell>
        <mxCell id="tyRtAacIzeEGG3dSfyBD-26" value="FA&amp;nbsp; &amp;nbsp; fast autoaugment" style="text;strokeColor=none;fillColor=none;align=left;verticalAlign=middle;spacingLeft=4;spacingRight=4;overflow=hidden;points=[[0,0.5],[1,0.5]];portConstraint=eastwest;rotatable=0;whiteSpace=wrap;html=1;" parent="tyRtAacIzeEGG3dSfyBD-24" vertex="1">
          <mxGeometry y="60" width="240" height="30" as="geometry" />
        </mxCell>
        <mxCell id="tyRtAacIzeEGG3dSfyBD-27" value="ASR&amp;nbsp; &amp;nbsp; attack success rate" style="text;strokeColor=none;fillColor=none;align=left;verticalAlign=middle;spacingLeft=4;spacingRight=4;overflow=hidden;points=[[0,0.5],[1,0.5]];portConstraint=eastwest;rotatable=0;whiteSpace=wrap;html=1;" parent="tyRtAacIzeEGG3dSfyBD-24" vertex="1">
          <mxGeometry y="90" width="240" height="30" as="geometry" />
        </mxCell>
        <mxCell id="y5dDvlJ8LpXuPyrqlvUU-2" value="AA&amp;nbsp; &amp;nbsp; AutoAugment" style="text;strokeColor=none;fillColor=none;align=left;verticalAlign=middle;spacingLeft=4;spacingRight=4;overflow=hidden;points=[[0,0.5],[1,0.5]];portConstraint=eastwest;rotatable=0;whiteSpace=wrap;html=1;" vertex="1" parent="tyRtAacIzeEGG3dSfyBD-24">
          <mxGeometry y="120" width="240" height="30" as="geometry" />
        </mxCell>
        <mxCell id="tyRtAacIzeEGG3dSfyBD-29" style="edgeStyle=orthogonalEdgeStyle;rounded=0;orthogonalLoop=1;jettySize=auto;html=1;exitX=1;exitY=0.5;exitDx=0;exitDy=0;" parent="1" source="tyRtAacIzeEGG3dSfyBD-28" edge="1">
          <mxGeometry relative="1" as="geometry">
            <mxPoint x="140" y="485.3103448275863" as="targetPoint" />
          </mxGeometry>
        </mxCell>
        <mxCell id="tyRtAacIzeEGG3dSfyBD-31" style="edgeStyle=orthogonalEdgeStyle;rounded=0;orthogonalLoop=1;jettySize=auto;html=1;exitX=0;exitY=0.5;exitDx=0;exitDy=0;entryX=0;entryY=0.5;entryDx=0;entryDy=0;" parent="1" source="tyRtAacIzeEGG3dSfyBD-28" target="tyRtAacIzeEGG3dSfyBD-11" edge="1">
          <mxGeometry relative="1" as="geometry">
            <Array as="points">
              <mxPoint x="-30" y="485" />
              <mxPoint x="-30" y="335" />
            </Array>
          </mxGeometry>
        </mxCell>
        <mxCell id="tyRtAacIzeEGG3dSfyBD-32" value="enhance" style="edgeLabel;html=1;align=center;verticalAlign=middle;resizable=0;points=[];" parent="tyRtAacIzeEGG3dSfyBD-31" vertex="1" connectable="0">
          <mxGeometry x="0.0217" y="-2" relative="1" as="geometry">
            <mxPoint x="-12" as="offset" />
          </mxGeometry>
        </mxCell>
        <mxCell id="tyRtAacIzeEGG3dSfyBD-28" value="WOFM" style="rounded=0;whiteSpace=wrap;html=1;" parent="1" vertex="1">
          <mxGeometry y="470" width="100" height="30" as="geometry" />
        </mxCell>
        <mxCell id="tyRtAacIzeEGG3dSfyBD-30" value="&lt;div&gt;weighted ob&lt;span style=&quot;background-color: initial;&quot;&gt;ject&lt;/span&gt;&lt;span style=&quot;background-color: initial;&quot;&gt;ive function method&lt;/span&gt;&lt;/div&gt;" style="text;html=1;align=center;verticalAlign=middle;resizable=0;points=[];autosize=1;strokeColor=none;fillColor=none;" parent="1" vertex="1">
          <mxGeometry x="140" y="470" width="210" height="30" as="geometry" />
        </mxCell>
      </root>
    </mxGraphModel>
  </diagram>
</mxfile>
